<?xml version="1.0" encoding="utf-8"?>
<!-- Generator: Adobe Illustrator 26.0.2, SVG Export Plug-In . SVG Version: 6.00 Build 0)  -->
<svg version="1.1" id="Calque_1" shape-rendering="crispEdges"
	 xmlns="http://www.w3.org/2000/svg" xmlns:xlink="http://www.w3.org/1999/xlink" x="0px" y="0px" viewBox="0 0 26.3 19.9"
	 style="enable-background:new 0 0 26.3 19.9;" xml:space="preserve">
<style type="text/css">
	.st0{fill:#C9C9C9;}
	.st1{fill:#FFFFFF;}
</style>
<rect x="0.3" y="2.4" transform="matrix(0.7071 -0.7071 0.7071 0.7071 -1.834 1.3901)" width="1" height="1"/>
<rect x="1" y="1.7" transform="matrix(0.7071 -0.7071 0.7071 0.7071 -1.1269 1.683)" width="1" height="1"/>
<rect x="1.7" y="2.4" transform="matrix(0.7071 -0.7071 0.7071 0.7071 -1.4198 2.3901)" class="st0" width="1" height="1"/>
<polygon points="7.8,6.4 7.1,5.7 6.4,5 7.1,4.3 7.8,3.6 7.1,2.9 6.4,3.6 5.7,4.3 5,3.6 4.3,2.9 3.6,2.2 2.9,1.5 2.2,2.2 2.9,2.9 
	3.6,3.6 4.3,4.3 5,5 5.7,5.7 6.4,6.4 7.1,7.2 7.8,7.9 8.5,7.2 "/>
<rect x="13.7" y="0.3" transform="matrix(0.7071 -0.7071 0.7071 0.7071 3.601 10.2688)" width="1" height="1"/>
<polygon class="st0" points="9.2,6.4 8.5,5.7 7.8,5 8.5,4.3 7.8,3.6 7.1,4.3 6.4,5 7.1,5.7 7.8,6.4 8.5,7.2 9.2,7.9 10,7.2 "/>
<rect x="14.4" y="1" transform="matrix(0.7071 -0.7071 0.7071 0.7071 3.3081 10.9759)" class="st0" width="1" height="1"/>
<polygon points="11.4,5.7 10.7,5 10,4.3 9.2,3.6 10,2.9 10.7,2.2 10,1.5 9.2,2.2 8.5,2.9 7.8,3.6 8.5,4.3 9.2,5 10,5.7 10.7,6.4 
	11.4,7.2 12.1,6.4 "/>
<polygon class="st0" points="12.1,5 11.4,4.3 10.7,3.6 11.4,2.9 10.7,2.2 10,2.9 9.2,3.6 10,4.3 10.7,5 11.4,5.7 12.1,6.4 12.8,5.7 
	"/>
<rect x="16.5" y="0.3" transform="matrix(0.7071 -0.7071 0.7071 0.7071 4.4294 12.2688)" class="st0" width="1" height="1"/>
<polygon points="14.2,4.3 13.5,3.6 12.8,2.9 12.1,2.2 12.8,1.5 13.5,0.8 12.8,0.1 12.1,0.8 11.4,1.5 10.7,2.2 11.4,2.9 12.1,3.6 
	12.8,4.3 13.5,5 14.2,5.7 14.9,5 "/>
<rect x="17.2" y="1" transform="matrix(0.7071 -0.7071 0.7071 0.7071 4.1366 12.9759)" class="st0" width="1" height="1"/>
<polygon class="st0" points="15.6,4.3 14.9,3.6 14.2,2.9 13.5,2.2 12.8,1.5 12.1,2.2 12.8,2.9 13.5,3.6 14.2,4.3 14.9,5 15.6,5.7 
	16.3,5 "/>
<rect x="17.9" y="1.7" transform="matrix(0.7071 -0.7071 0.7071 0.7071 3.8437 13.683)" class="st0" width="1" height="1"/>
<rect x="18.6" y="2.4" transform="matrix(0.7071 -0.7071 0.7071 0.7071 3.5508 14.3901)" class="st0" width="1" height="1"/>
<polygon points="6.4,14.9 7.1,14.2 7.8,13.5 7.1,12.8 6.4,13.5 5.7,14.2 5,14.9 5.7,15.6 6.4,16.3 7.1,17.1 7.8,16.3 7.1,15.6 "/>
<polygon class="st0" points="8.5,14.2 7.8,13.5 7.1,14.2 6.4,14.9 7.1,15.6 7.8,16.3 8.5,15.6 7.8,14.9 "/>
<rect x="8.7" y="13.7" transform="matrix(0.7071 -0.7071 0.7071 0.7071 -7.3487 10.7038)" class="st0" width="1" height="1"/>
<polygon points="10,12.8 9.2,12.1 8.5,11.4 7.8,10.7 7.1,10 6.4,9.3 5.7,8.6 5,7.9 4.3,7.2 3.6,6.4 2.9,5.7 2.2,5 1.5,4.3 0.8,3.6 
	0.1,4.3 0.8,5 1.5,5.7 2.2,6.4 2.9,7.2 3.6,7.9 4.3,8.6 5,9.3 5.7,10 6.4,10.7 7.1,11.4 7.8,12.1 8.5,12.8 7.8,13.5 8.5,14.2 
	9.2,13.5 10,14.2 10.7,13.5 "/>
<rect x="19.4" y="3.1" transform="matrix(0.7071 -0.7071 0.7071 0.7071 3.2579 15.0972)" class="st0" width="1" height="1"/>
<rect x="8" y="15.8" transform="matrix(0.7071 -0.7071 0.7071 0.7071 -9.0558 10.8251)" width="1" height="1"/>
<polygon class="st0" points="11.4,12.8 10.7,12.1 10,11.4 9.2,10.7 8.5,10 7.8,9.3 7.1,8.6 6.4,7.9 5.7,7.2 5,6.4 4.3,5.7 3.6,5 
	2.9,4.3 2.2,3.6 1.5,4.3 2.2,5 2.9,5.7 3.6,6.4 4.3,7.2 5,7.9 5.7,8.6 6.4,9.3 7.1,10 7.8,10.7 8.5,11.4 9.2,12.1 10,12.8 
	10.7,13.5 11.4,14.2 12.1,13.5 "/>
<rect x="20.1" y="3.8" transform="matrix(0.7071 -0.7071 0.7071 0.7071 2.965 15.8043)" class="st0" width="1" height="1"/>
<rect x="9.5" y="15.8" transform="matrix(0.7071 -0.7071 0.7071 0.7071 -8.6416 11.8251)" width="1" height="1"/>
<rect x="10.2" y="15.1" transform="matrix(0.7071 -0.7071 0.7071 0.7071 -7.9345 12.118)" class="st0" width="1" height="1"/>
<rect x="20.8" y="4.5" transform="matrix(0.7071 -0.7071 0.7071 0.7071 2.6721 16.5114)" class="st0" width="1" height="1"/>
<rect x="10.9" y="15.8" transform="matrix(0.7071 -0.7071 0.7071 0.7071 -8.2274 12.8251)" width="1" height="1"/>
<rect x="11.6" y="15.1" transform="matrix(0.7071 -0.7071 0.7071 0.7071 -7.5203 13.118)" class="st0" width="1" height="1"/>
<rect x="21.5" y="5.2" transform="matrix(0.7071 -0.7071 0.7071 0.7071 2.3792 17.2185)" class="st0" width="1" height="1"/>
<rect x="11.6" y="16.6" transform="matrix(0.7071 -0.7071 0.7071 0.7071 -8.5203 13.5322)" width="1" height="1"/>
<rect x="12.3" y="15.8" transform="matrix(0.7071 -0.7071 0.7071 0.7071 -7.8132 13.8251)" class="st0" width="1" height="1"/>
<rect x="22.2" y="5.9" transform="matrix(0.7071 -0.7071 0.7071 0.7071 2.0863 17.9256)" class="st0" width="1" height="1"/>
<rect x="13" y="16.6" transform="matrix(0.7071 -0.7071 0.7071 0.7071 -8.1061 14.5322)" width="1" height="1"/>
<rect x="13.7" y="15.8" transform="matrix(0.7071 -0.7071 0.7071 0.7071 -7.399 14.8251)" class="st0" width="1" height="1"/>
<rect x="13.7" y="17.3" transform="matrix(0.7071 -0.7071 0.7071 0.7071 -8.399 15.2393)" width="1" height="1"/>
<rect x="22.9" y="8.1" transform="matrix(0.7071 -0.7071 0.7071 0.7071 0.7934 19.0469)" class="st0" width="1" height="1"/>
<rect x="15.8" y="16.6" transform="matrix(0.7071 -0.7071 0.7071 0.7071 -7.2777 16.5322)" class="st0" width="1" height="1"/>
<rect x="23.6" y="8.8" transform="matrix(0.7071 -0.7071 0.7071 0.7071 0.5005 19.754)" class="st0" width="1" height="1"/>
<rect x="16.5" y="17.3" transform="matrix(0.7071 -0.7071 0.7071 0.7071 -7.5706 17.2393)" class="st0" width="1" height="1"/>
<g>
	<rect x="1" y="3.1" transform="matrix(0.7071 -0.7071 0.7071 0.7071 -2.1269 2.0972)" class="st1" width="1" height="1"/>
	<polygon class="st1" points="23.4,10.7 22.7,10 22,9.3 21.3,8.6 22,7.9 21.3,7.2 20.6,6.4 19.9,5.7 19.1,5 18.4,4.3 17.7,3.6 
		17,2.9 16.3,2.2 15.6,1.5 14.9,2.2 14.2,1.5 13.5,0.8 12.8,1.5 13.5,2.2 14.2,2.9 14.9,3.6 15.6,4.3 16.3,5 15.6,5.7 14.9,5 
		14.2,5.7 13.5,5 12.8,4.3 12.1,3.6 11.4,2.9 10.7,3.6 11.4,4.3 12.1,5 12.8,5.7 12.1,6.4 11.4,7.2 10.7,6.4 10,5.7 9.2,5 8.5,4.3 
		7.8,5 8.5,5.7 9.2,6.4 10,7.2 9.2,7.9 8.5,7.2 7.8,7.9 7.1,7.2 6.4,6.4 5.7,5.7 5,5 4.3,4.3 3.6,3.6 2.9,2.9 2.2,3.6 2.9,4.3 
		3.6,5 4.3,5.7 5,6.4 5.7,7.2 6.4,7.9 7.1,8.6 7.8,9.3 8.5,10 9.2,10.7 10,11.4 10.7,12.1 11.4,12.8 12.1,13.5 11.4,14.2 10.7,13.5 
		10,14.2 9.2,14.9 8.5,14.2 7.8,14.9 8.5,15.6 9.2,16.3 10,15.6 10.7,14.9 11.4,15.6 12.1,14.9 12.8,15.6 13.5,16.3 14.2,15.6 
		14.9,16.3 14.2,17.1 14.9,17.8 15.6,17.1 16.3,16.3 17,17.1 17.7,17.8 18.4,17.1 19.1,16.3 19.9,15.6 20.6,14.9 21.3,14.2 22,13.5 
		22.7,12.8 23.4,12.1 22.7,11.4 	"/>
</g>
<g>
	<polygon points="22,6.4 21.3,5.7 20.6,5 19.9,4.3 19.1,3.6 18.4,2.9 17.7,2.2 17,1.5 16.3,0.8 15.6,0.1 14.9,0.8 15.6,1.5 
		16.3,2.2 17,2.9 17.7,3.6 18.4,4.3 19.1,5 19.9,5.7 20.6,6.4 21.3,7.2 22,7.9 22.7,7.2 	"/>
	<polygon points="23.4,9.3 22.7,8.6 22,7.9 21.3,8.6 22,9.3 22.7,10 23.4,10.7 24.1,10 	"/>
	<polygon points="24.1,11.4 23.4,10.7 22.7,11.4 23.4,12.1 22.7,12.8 22,13.5 21.3,14.2 20.6,14.9 19.9,15.6 19.1,16.3 18.4,17.1 
		17.7,17.8 17,18.5 16.3,17.8 15.6,17.1 14.9,17.8 15.6,18.5 16.3,19.2 17,19.9 17.7,19.2 18.4,18.5 19.1,17.8 19.9,17.1 20.6,16.3 
		21.3,15.6 22,14.9 22.7,14.2 23.4,13.5 24.1,12.8 24.8,12.1 	"/>
</g>
<rect x="24.3" y="10.9" transform="matrix(0.7071 -0.7071 0.7071 0.7071 -0.7924 20.8754)" class="st0" width="1" height="1"/>
<rect x="18.6" y="18" transform="matrix(0.7071 -0.7071 0.7071 0.7071 -7.4492 18.9464)" class="st0" width="1" height="1"/>
<rect x="19.4" y="17.3" transform="matrix(0.7071 -0.7071 0.7071 0.7071 -6.7421 19.2393)" class="st0" width="1" height="1"/>
<rect x="20.1" y="16.6" transform="matrix(0.7071 -0.7071 0.7071 0.7071 -6.035 19.5322)" class="st0" width="1" height="1"/>
<rect x="20.8" y="15.8" transform="matrix(0.7071 -0.7071 0.7071 0.7071 -5.3279 19.8251)" class="st0" width="1" height="1"/>
<rect x="21.5" y="15.1" transform="matrix(0.7071 -0.7071 0.7071 0.7071 -4.6208 20.118)" class="st0" width="1" height="1"/>
<rect x="22.2" y="14.4" transform="matrix(0.7071 -0.7071 0.7071 0.7071 -3.9137 20.4109)" class="st0" width="1" height="1"/>
<rect x="22.9" y="13.7" transform="matrix(0.7071 -0.7071 0.7071 0.7071 -3.2066 20.7038)" class="st0" width="1" height="1"/>
<rect x="23.6" y="13" transform="matrix(0.7071 -0.7071 0.7071 0.7071 -2.4995 20.9967)" class="st0" width="1" height="1"/>
<rect x="24.3" y="12.3" transform="matrix(0.7071 -0.7071 0.7071 0.7071 -1.7924 21.2896)" class="st0" width="1" height="1"/>
<rect x="25" y="11.6" transform="matrix(0.7071 -0.7071 0.7071 0.7071 -1.0853 21.5825)" class="st0" width="1" height="1"/>
</svg>
