<svg xmlns="http://www.w3.org/2000/svg" xmlns:xlink="http://www.w3.org/1999/xlink" viewBox="0 0 1920 1080"><defs><style>.cls-1{fill:#7e7e7d;}.cls-2{fill:#59595a;}.cls-3{fill:#b7b6b6;}</style></defs><g id="ON"><image width="1920" height="1080" xlink:href="SimonON.jpg"/></g><g id="Calque_3" data-name="Calque 3"><rect class="cls-1" x="543.58" y="124.94" width="827.66" height="827.66"/></g><g id="Calque_5" data-name="Calque 5"><rect class="cls-2" x="631.39" y="143.85" width="72" height="16.46"/><rect class="cls-1" x="578.94" y="337.2" width="176.89" height="9.25"/><path class="cls-3" d="M578.94,160.31V337.2H755.83V160.31ZM737.43,318.8H597.34V178.71H737.43Z"/></g><g id="Calque_6" data-name="Calque 6"><rect class="cls-2" x="824.73" y="143.85" width="72" height="16.46"/><rect class="cls-1" x="772.29" y="337.2" width="176.89" height="9.25"/><path class="cls-3" d="M772.29,160.31V337.2H949.18V160.31ZM930.78,318.8H790.69V178.71H930.78Z"/></g><g id="Calque_7" data-name="Calque 7"><rect class="cls-2" x="1018.08" y="143.85" width="72" height="16.46"/><rect class="cls-1" x="965.64" y="337.2" width="176.89" height="9.25"/><path class="cls-3" d="M965.64,160.31V337.2h176.89V160.31ZM1124.13,318.8H984V178.71h140.09Z"/></g><g id="Calque_8" data-name="Calque 8"><rect class="cls-2" x="1211.43" y="143.85" width="72" height="16.46"/><rect class="cls-1" x="1158.99" y="337.2" width="176.89" height="9.25"/><path class="cls-3" d="M1159,160.31V337.2h176.88V160.31ZM1317.47,318.8H1177.38V178.71h140.09Z"/></g><g id="Calque_9" data-name="Calque 9"><rect class="cls-2" x="631.39" y="337.2" width="72" height="16.46"/><rect class="cls-1" x="578.94" y="530.55" width="176.89" height="9.25"/><path class="cls-3" d="M578.94,353.66V530.55H755.83V353.66ZM737.43,512.15H597.34V372.06H737.43Z"/></g><g id="Calque_10" data-name="Calque 10"><rect class="cls-2" x="824.73" y="337.2" width="72" height="16.46"/><rect class="cls-1" x="772.29" y="530.55" width="176.89" height="9.25"/><path class="cls-3" d="M772.29,353.66V530.55H949.18V353.66ZM930.78,512.15H790.69V372.06H930.78Z"/></g><g id="Calque_11" data-name="Calque 11"><rect class="cls-2" x="1018.08" y="337.2" width="72" height="16.46"/><rect class="cls-1" x="965.64" y="530.55" width="176.89" height="9.25"/><path class="cls-3" d="M965.64,353.66V530.55h176.89V353.66Zm158.49,158.49H984V372.06h140.09Z"/></g><g id="Calque_12" data-name="Calque 12"><rect class="cls-2" x="1211.43" y="337.2" width="72" height="16.46"/><rect class="cls-1" x="1158.99" y="530.55" width="176.89" height="9.25"/><path class="cls-3" d="M1159,353.66V530.55h176.88V353.66Zm158.48,158.49H1177.38V372.06h140.09Z"/></g><g id="Calque_13" data-name="Calque 13"><rect class="cls-2" x="631.39" y="530.55" width="72" height="16.46"/><rect class="cls-1" x="578.94" y="723.89" width="176.89" height="9.25"/><path class="cls-3" d="M578.94,547V723.89H755.83V547ZM737.43,705.5H597.34V565.41H737.43Z"/></g><g id="Calque_14" data-name="Calque 14"><rect class="cls-2" x="824.73" y="530.55" width="72" height="16.46"/><rect class="cls-1" x="772.29" y="723.89" width="176.89" height="9.25"/><path class="cls-3" d="M772.29,547V723.89H949.18V547ZM930.78,705.5H790.69V565.41H930.78Z"/></g><g id="Calque_15" data-name="Calque 15"><rect class="cls-2" x="1018.08" y="530.55" width="72" height="16.46"/><rect class="cls-1" x="965.64" y="723.89" width="176.89" height="9.25"/><path class="cls-3" d="M965.64,547V723.89h176.89V547ZM1124.13,705.5H984V565.41h140.09Z"/></g><g id="Calque_16" data-name="Calque 16"><rect class="cls-2" x="1211.43" y="530.55" width="72" height="16.46"/><rect class="cls-1" x="1158.99" y="723.89" width="176.89" height="9.25"/><path class="cls-3" d="M1159,547V723.89h176.88V547ZM1317.47,705.5H1177.38V565.41h140.09Z"/></g><g id="Calque_17" data-name="Calque 17"><rect class="cls-2" x="631.39" y="723.89" width="72" height="16.46"/><rect class="cls-1" x="578.94" y="917.24" width="176.89" height="9.25"/><path class="cls-3" d="M578.94,740.35V917.24H755.83V740.35ZM737.43,898.84H597.34V758.75H737.43Z"/><rect class="cls-2" x="631.39" y="917.24" width="72" height="16.46"/></g><g id="Calque_18" data-name="Calque 18"><rect class="cls-2" x="824.73" y="723.89" width="72" height="16.46"/><rect class="cls-1" x="772.29" y="917.24" width="176.89" height="9.25"/><path class="cls-3" d="M772.29,740.35V917.24H949.18V740.35ZM930.78,898.84H790.69V758.75H930.78Z"/><rect class="cls-2" x="824.73" y="917.24" width="72" height="16.46"/><rect class="cls-2" x="1018.08" y="723.89" width="72" height="16.46"/><rect class="cls-1" x="965.64" y="917.24" width="176.89" height="9.25"/><path class="cls-3" d="M965.64,740.35V917.24h176.89V740.35Zm158.49,158.49H984V758.75h140.09Z"/><rect class="cls-2" x="1018.08" y="917.24" width="72" height="16.46"/><rect class="cls-2" x="1211.43" y="723.89" width="72" height="16.46"/><rect class="cls-1" x="1158.99" y="917.24" width="176.89" height="9.25"/><path class="cls-3" d="M1159,740.35V917.24h176.88V740.35Zm158.48,158.49H1177.38V758.75h140.09Z"/><rect class="cls-2" x="1211.43" y="917.24" width="72" height="16.46"/></g></svg>